<svg xmlns="http://www.w3.org/2000/svg" xmlns:xlink="http://www.w3.org/1999/xlink" width="500" zoomAndPan="magnify" viewBox="0 0 375 374.999991" height="500" preserveAspectRatio="xMidYMid meet" version="1.0"><path fill="#b4b3b3" d="M 362.707031 16.828125 C 378.394531 33.226562 377.816406 59.238281 361.40625 74.921875 C 345 90.601562 318.976562 90.019531 303.292969 73.621094 C 287.601562 57.21875 288.183594 31.210938 304.59375 15.53125 C 320.996094 -0.15625 347.019531 0.421875 362.707031 16.828125 " fill-opacity="1" fill-rule="nonzero"/><path fill="#d3d2d2" d="M 359.125 20.253906 C 372.921875 34.671875 372.40625 57.542969 357.980469 71.339844 C 343.554688 85.132812 320.671875 84.621094 306.875 70.195312 C 293.074219 55.777344 293.585938 32.898438 308.015625 19.105469 C 322.441406 5.316406 345.324219 5.824219 359.125 20.253906 " fill-opacity="1" fill-rule="nonzero"/><path fill="#e0e0e0" d="M 351.175781 27.851562 C 360.769531 37.886719 360.417969 53.796875 350.375 63.390625 C 340.339844 72.988281 324.421875 72.628906 314.824219 62.597656 C 305.226562 52.558594 305.578125 36.648438 315.621094 27.054688 C 325.660156 17.460938 341.570312 17.820312 351.175781 27.851562 " fill-opacity="1" fill-rule="nonzero"/><path fill="#1f1b20" d="M 322.984375 242.621094 C 293.15625 324.417969 202.632812 366.550781 120.804688 336.730469 C 38.976562 306.902344 -3.175781 216.414062 26.664062 134.621094 C 56.496094 52.824219 147.019531 10.6875 228.847656 40.515625 C 310.675781 70.34375 352.820312 160.824219 322.984375 242.621094 " fill-opacity="1" fill-rule="nonzero"/><path fill="#29242c" d="M 315.730469 239.976562 C 287.355469 317.765625 201.273438 357.835938 123.449219 329.46875 C 45.632812 301.109375 5.546875 215.050781 33.921875 137.265625 C 62.296875 59.476562 148.382812 19.40625 226.199219 47.769531 C 304.019531 76.136719 344.101562 162.1875 315.730469 239.976562 " fill-opacity="1" fill-rule="nonzero"/><path fill="#38333f" d="M 38.761719 251.683594 C 24.433594 220.792969 20.5625 185.054688 29.835938 150.21875 C 93.8125 159.097656 167.488281 168.1875 167.488281 168.1875 C 167.488281 168.1875 272.765625 119.457031 300.621094 106.984375 C 322.726562 141.0625 330.789062 183.722656 320.273438 225.238281 C 233.550781 212.367188 177.074219 207.199219 177.074219 207.199219 C 177.074219 207.199219 100.476562 232.292969 38.761719 251.683594 " fill-opacity="1" fill-rule="nonzero"/><path fill="#3b343e" d="M 174.8125 331.371094 C 158.570312 331.371094 142.058594 328.582031 125.917969 322.703125 C 89.121094 309.285156 61.1875 282.324219 45.699219 249.5 C 45.964844 249.417969 46.222656 249.332031 46.492188 249.253906 C 61.894531 281.835938 89.648438 308.605469 126.199219 321.929688 C 142.246094 327.777344 158.664062 330.550781 174.8125 330.550781 C 232.765625 330.550781 287.179688 294.808594 308.179688 237.226562 C 309.777344 232.863281 311.140625 228.46875 312.28125 224.0625 C 312.554688 224.101562 312.824219 224.144531 313.101562 224.179688 C 311.945312 228.640625 310.566406 233.089844 308.953125 237.507812 C 287.828125 295.425781 233.097656 331.371094 174.8125 331.371094 M 37.863281 151.328125 C 37.589844 151.292969 37.3125 151.253906 37.039062 151.214844 C 38.089844 147.375 39.304688 143.546875 40.695312 139.734375 C 61.820312 81.824219 116.546875 45.867188 174.832031 45.871094 C 191.074219 45.871094 207.589844 48.660156 223.726562 54.542969 C 253.640625 65.449219 277.699219 85.304688 293.96875 109.980469 C 293.722656 110.09375 293.46875 110.207031 293.214844 110.324219 C 277.035156 85.839844 253.140625 66.140625 223.445312 55.316406 C 207.398438 49.464844 190.980469 46.695312 174.832031 46.695312 C 116.882812 46.695312 62.46875 82.4375 41.46875 140.015625 C 40.097656 143.769531 38.898438 147.542969 37.863281 151.328125 " fill-opacity="1" fill-rule="nonzero"/><path fill="#4b4451" d="M 45.699219 249.5 C 36.808594 230.648438 32.015625 209.867188 32.015625 188.609375 C 32.015625 176.210938 33.648438 163.648438 37.039062 151.214844 C 37.3125 151.253906 37.589844 151.292969 37.863281 151.328125 C 34.472656 163.726562 32.839844 176.246094 32.839844 188.609375 C 32.839844 209.78125 37.617188 230.480469 46.492188 249.253906 C 46.222656 249.332031 45.964844 249.417969 45.699219 249.5 M 313.101562 224.179688 C 312.824219 224.144531 312.554688 224.101562 312.28125 224.0625 C 315.339844 212.269531 316.808594 200.378906 316.808594 188.628906 C 316.808594 160.566406 308.417969 133.335938 293.214844 110.324219 C 293.46875 110.207031 293.722656 110.09375 293.96875 109.980469 C 309.21875 133.097656 317.632812 160.449219 317.632812 188.628906 C 317.632812 200.417969 316.15625 212.351562 313.101562 224.179688 " fill-opacity="1" fill-rule="nonzero"/><path fill="#3b343e" d="M 174.816406 301.171875 C 162.011719 301.171875 148.992188 298.972656 136.265625 294.332031 C 108.628906 284.257812 87.324219 264.480469 74.816406 240.261719 C 75.019531 240.195312 75.230469 240.125 75.441406 240.058594 C 87.882812 264.101562 109.042969 283.722656 136.492188 293.722656 C 149.140625 298.339844 162.089844 300.523438 174.816406 300.523438 C 220.503906 300.523438 263.410156 272.34375 279.96875 226.945312 C 280.832031 224.578125 281.609375 222.195312 282.304688 219.808594 C 282.519531 219.839844 282.738281 219.867188 282.953125 219.898438 C 282.246094 222.328125 281.457031 224.75 280.578125 227.167969 C 263.921875 272.824219 220.773438 301.171875 174.816406 301.171875 M 67.953125 155.398438 C 67.738281 155.367188 67.519531 155.339844 67.304688 155.308594 C 67.84375 153.558594 68.433594 151.816406 69.070312 150.074219 C 85.722656 104.414062 128.875 76.070312 174.832031 76.070312 C 187.636719 76.070312 200.65625 78.269531 213.382812 82.910156 C 235.375 90.921875 253.347656 105.074219 266.074219 122.722656 C 265.878906 122.808594 265.671875 122.902344 265.476562 122.996094 C 252.824219 105.5 234.980469 91.46875 213.160156 83.515625 C 200.507812 78.902344 187.5625 76.71875 174.832031 76.71875 C 129.144531 76.71875 86.238281 104.898438 69.675781 150.296875 C 69.058594 151.988281 68.484375 153.691406 67.953125 155.398438 " fill-opacity="1" fill-rule="nonzero"/><path fill="#4b4451" d="M 74.816406 240.261719 C 66.652344 224.453125 62.230469 206.753906 62.230469 188.605469 C 62.230469 177.558594 63.871094 166.351562 67.304688 155.308594 C 67.519531 155.339844 67.738281 155.367188 67.953125 155.398438 C 64.519531 166.410156 62.878906 177.589844 62.878906 188.605469 C 62.878906 206.679688 67.289062 224.316406 75.441406 240.058594 C 75.230469 240.125 75.019531 240.195312 74.816406 240.261719 M 282.953125 219.898438 C 282.738281 219.867188 282.519531 219.839844 282.304688 219.808594 C 285.324219 209.453125 286.769531 198.96875 286.769531 188.625 C 286.769531 164.894531 279.160156 141.921875 265.476562 122.996094 C 265.671875 122.902344 265.878906 122.808594 266.074219 122.722656 C 279.789062 141.734375 287.417969 164.800781 287.417969 188.625 C 287.417969 198.996094 285.96875 209.511719 282.953125 219.898438 " fill-opacity="1" fill-rule="nonzero"/><path fill="#3b343e" d="M 174.816406 280.640625 C 164.351562 280.640625 153.699219 278.84375 143.300781 275.050781 C 121.867188 267.238281 105.105469 252.304688 94.707031 233.890625 C 94.917969 233.824219 95.125 233.757812 95.335938 233.6875 C 105.664062 251.914062 122.289062 266.703125 143.519531 274.441406 C 153.851562 278.203125 164.421875 279.992188 174.816406 279.992188 C 212.125 279.992188 247.15625 256.980469 260.675781 219.914062 C 261.023438 218.957031 261.359375 217.996094 261.671875 217.035156 C 261.890625 217.066406 262.105469 217.09375 262.324219 217.121094 C 262 218.128906 261.652344 219.132812 261.285156 220.136719 C 247.667969 257.46875 212.390625 280.640625 174.816406 280.640625 M 88.683594 158.132812 C 88.464844 158.105469 88.246094 158.078125 88.027344 158.046875 C 88.136719 157.734375 88.25 157.421875 88.367188 157.109375 C 101.976562 119.773438 137.253906 96.601562 174.828125 96.601562 C 185.296875 96.601562 195.945312 98.402344 206.347656 102.195312 C 222.960938 108.246094 236.761719 118.578125 246.980469 131.496094 C 246.777344 131.589844 246.574219 131.683594 246.371094 131.777344 C 236.242188 119.007812 222.566406 108.792969 206.128906 102.800781 C 195.792969 99.035156 185.222656 97.25 174.828125 97.25 C 137.523438 97.25 102.492188 120.257812 88.972656 157.328125 C 88.875 157.597656 88.777344 157.867188 88.683594 158.132812 " fill-opacity="1" fill-rule="nonzero"/><path fill="#4b4451" d="M 94.707031 233.890625 C 86.980469 220.214844 82.769531 204.625 82.769531 188.617188 C 82.769531 178.464844 84.460938 168.148438 88.027344 158.046875 C 88.246094 158.078125 88.464844 158.105469 88.683594 158.132812 C 85.113281 168.207031 83.417969 178.496094 83.417969 188.617188 C 83.417969 204.558594 87.625 220.082031 95.335938 233.6875 C 95.125 233.757812 94.917969 233.824219 94.707031 233.890625 M 262.324219 217.121094 C 262.105469 217.09375 261.890625 217.066406 261.671875 217.035156 C 264.761719 207.628906 266.230469 198.054688 266.230469 188.625 C 266.230469 167.867188 259.09375 147.808594 246.371094 131.777344 C 246.574219 131.683594 246.777344 131.589844 246.980469 131.496094 C 259.730469 147.625 266.878906 167.773438 266.878906 188.625 C 266.878906 198.082031 265.410156 207.6875 262.324219 217.121094 " fill-opacity="1" fill-rule="nonzero"/><path fill="#3b343e" d="M 174.8125 325.257812 C 159.269531 325.257812 143.453125 322.585938 128.007812 316.957031 C 100.292969 306.855469 77.808594 288.703125 62.28125 266.117188 C 58.234375 260.238281 54.660156 254.054688 51.585938 247.640625 C 53.195312 247.132812 54.804688 246.621094 56.421875 246.109375 C 59.3125 252.0625 62.65625 257.804688 66.414062 263.269531 C 81.386719 285.03125 103.015625 302.5 129.730469 312.238281 C 144.621094 317.667969 159.839844 320.242188 174.8125 320.242188 C 174.816406 320.242188 174.816406 320.242188 174.816406 320.242188 C 201.679688 320.242188 227.738281 311.949219 249.503906 296.988281 C 271.277344 282.023438 288.75 260.402344 298.496094 233.695312 C 299.839844 230.003906 301.011719 226.296875 302.007812 222.574219 C 303.664062 222.8125 305.332031 223.054688 307.015625 223.292969 C 305.941406 227.351562 304.675781 231.394531 303.214844 235.414062 L 300.855469 234.550781 L 303.214844 235.414062 C 293.105469 263.125 274.945312 285.59375 252.351562 301.125 C 229.75 316.652344 202.710938 325.257812 174.8125 325.257812 M 48.175781 152.734375 C 46.5 152.507812 44.824219 152.28125 43.152344 152.050781 C 44.109375 148.632812 45.203125 145.222656 46.441406 141.832031 C 56.546875 114.121094 74.703125 91.648438 97.304688 76.121094 C 119.898438 60.585938 146.933594 51.988281 174.832031 51.984375 C 190.382812 51.984375 206.191406 54.660156 221.636719 60.289062 C 249.355469 70.386719 271.839844 88.542969 287.375 111.128906 C 287.695312 111.597656 288.015625 112.066406 288.335938 112.539062 C 286.855469 113.214844 285.308594 113.921875 283.699219 114.652344 C 283.546875 114.425781 283.390625 114.199219 283.238281 113.96875 C 268.269531 92.210938 246.636719 74.742188 219.914062 65 C 205.03125 59.574219 189.804688 57.003906 174.832031 57.003906 C 174.832031 57.003906 174.832031 57.003906 174.828125 57.003906 C 147.96875 57.003906 121.914062 65.289062 100.144531 80.25 C 78.378906 95.214844 60.898438 116.84375 51.15625 143.550781 C 50.042969 146.597656 49.050781 149.667969 48.175781 152.734375 " fill-opacity="1" fill-rule="nonzero"/><path fill="#4b4451" d="M 51.585938 247.640625 C 42.84375 229.402344 38.136719 209.242188 38.136719 188.609375 C 38.136719 176.488281 39.765625 164.203125 43.152344 152.050781 C 44.824219 152.28125 46.5 152.507812 48.175781 152.734375 C 44.785156 164.660156 43.160156 176.714844 43.160156 188.609375 C 43.160156 208.71875 47.800781 228.367188 56.421875 246.109375 C 54.804688 246.621094 53.195312 247.132812 51.585938 247.640625 M 307.015625 223.292969 C 305.332031 223.054688 303.664062 222.8125 302.007812 222.574219 C 305.039062 211.285156 306.496094 199.886719 306.496094 188.628906 C 306.496094 162.054688 298.375 136.273438 283.699219 114.652344 C 285.308594 113.921875 286.855469 113.214844 288.335938 112.539062 C 303.265625 134.835938 311.515625 161.320312 311.515625 188.628906 C 311.519531 200.128906 310.054688 211.765625 307.015625 223.292969 " fill-opacity="1" fill-rule="nonzero"/><path fill="#3b343e" d="M 174.8125 317.726562 C 160.121094 317.726562 145.183594 315.203125 130.59375 309.886719 C 104.398438 300.339844 83.160156 283.183594 68.480469 261.847656 C 64.859375 256.582031 61.636719 251.066406 58.839844 245.34375 C 60.359375 244.863281 61.886719 244.375 63.410156 243.890625 C 66.035156 249.175781 69.03125 254.28125 72.390625 259.15625 C 86.535156 279.71875 106.972656 296.226562 132.214844 305.425781 C 146.28125 310.554688 160.667969 312.984375 174.8125 312.984375 C 174.816406 312.984375 174.8125 312.984375 174.816406 312.984375 C 200.199219 312.984375 224.816406 305.15625 245.386719 291.015625 C 265.957031 276.878906 282.472656 256.445312 291.675781 231.210938 C 292.847656 228.003906 293.875 224.777344 294.769531 221.546875 C 296.332031 221.765625 297.914062 221.988281 299.503906 222.21875 C 298.542969 225.769531 297.417969 229.3125 296.136719 232.835938 C 286.585938 259.019531 269.425781 280.25 248.074219 294.925781 C 226.726562 309.601562 201.171875 317.726562 174.8125 317.726562 M 55.4375 153.71875 C 53.855469 153.503906 52.273438 153.292969 50.6875 153.078125 C 51.523438 150.175781 52.460938 147.285156 53.511719 144.40625 C 63.0625 118.222656 80.222656 96.984375 101.574219 82.316406 C 122.929688 67.640625 148.476562 59.511719 174.839844 59.511719 C 189.523438 59.511719 204.460938 62.035156 219.054688 67.355469 C 245.25 76.902344 266.492188 94.050781 281.171875 115.394531 C 281.242188 115.5 281.3125 115.605469 281.386719 115.710938 C 279.964844 116.359375 278.503906 117.03125 277.003906 117.714844 C 262.871094 97.320312 242.523438 80.957031 217.425781 71.808594 C 203.363281 66.679688 188.980469 64.253906 174.839844 64.253906 C 149.449219 64.253906 124.832031 72.085938 104.261719 86.21875 C 83.691406 100.363281 67.179688 120.796875 57.96875 146.03125 C 57.039062 148.585938 56.199219 151.148438 55.4375 153.71875 " fill-opacity="1" fill-rule="nonzero"/><path fill="#4b4451" d="M 58.839844 245.34375 C 50.28125 227.859375 45.664062 208.46875 45.664062 188.605469 C 45.664062 176.828125 47.292969 164.878906 50.6875 153.078125 C 52.273438 153.292969 53.855469 153.503906 55.4375 153.71875 C 52.039062 165.304688 50.410156 177.035156 50.410156 188.605469 C 50.410156 207.96875 54.96875 226.882812 63.410156 243.890625 C 61.886719 244.375 60.359375 244.863281 58.839844 245.34375 M 299.503906 222.21875 C 297.914062 221.988281 296.332031 221.765625 294.769531 221.546875 C 297.789062 210.597656 299.238281 199.542969 299.238281 188.628906 C 299.238281 163.253906 291.40625 138.640625 277.261719 118.082031 C 277.175781 117.957031 277.089844 117.832031 277.003906 117.714844 C 278.503906 117.03125 279.964844 116.359375 281.386719 115.710938 C 295.929688 136.988281 303.980469 162.40625 303.980469 188.628906 C 303.980469 199.765625 302.527344 211.050781 299.503906 222.21875 " fill-opacity="1" fill-rule="nonzero"/><path fill="#3b343e" d="M 174.816406 310.757812 C 160.921875 310.757812 146.789062 308.367188 132.988281 303.335938 C 108.207031 294.304688 88.109375 278.078125 74.226562 257.890625 C 70.996094 253.199219 68.105469 248.289062 65.5625 243.207031 C 67 242.75 68.453125 242.289062 69.890625 241.828125 C 72.265625 246.5 74.945312 251.023438 77.921875 255.351562 C 91.304688 274.800781 110.644531 290.414062 134.519531 299.121094 C 147.828125 303.972656 161.4375 306.265625 174.816406 306.265625 C 174.816406 306.265625 174.816406 306.265625 174.820312 306.265625 C 198.832031 306.265625 222.125 298.859375 241.582031 285.484375 C 261.039062 272.113281 276.660156 252.785156 285.367188 228.914062 C 286.371094 226.152344 287.269531 223.382812 288.058594 220.605469 C 289.539062 220.8125 291.035156 221.019531 292.542969 221.234375 C 291.6875 224.316406 290.699219 227.390625 289.585938 230.449219 C 280.550781 255.214844 264.320312 275.304688 244.121094 289.183594 C 223.925781 303.0625 199.757812 310.753906 174.816406 310.757812 M 62.1875 154.625 C 60.691406 154.425781 59.183594 154.222656 57.683594 154.023438 C 58.398438 151.605469 59.191406 149.199219 60.070312 146.796875 C 69.101562 122.027344 85.332031 101.941406 105.53125 88.058594 C 125.726562 74.175781 149.898438 66.488281 174.839844 66.488281 C 188.730469 66.484375 202.867188 68.875 216.671875 73.90625 C 241.160156 82.832031 261.078125 98.789062 274.945312 118.65625 C 273.585938 119.277344 272.203125 119.910156 270.792969 120.558594 C 257.453125 101.726562 238.460938 86.625 215.132812 78.121094 C 201.824219 73.269531 188.21875 70.972656 174.839844 70.972656 C 174.832031 70.972656 174.832031 70.972656 174.832031 70.972656 C 150.816406 70.972656 127.53125 78.378906 108.074219 91.753906 C 88.617188 105.132812 72.992188 124.464844 64.289062 148.335938 C 63.523438 150.425781 62.820312 152.519531 62.1875 154.625 " fill-opacity="1" fill-rule="nonzero"/><path fill="#4b4451" d="M 65.5625 243.207031 C 57.175781 226.429688 52.644531 207.75 52.644531 188.617188 C 52.644531 177.140625 54.273438 165.503906 57.683594 154.023438 C 59.183594 154.222656 60.691406 154.425781 62.1875 154.625 C 58.761719 165.90625 57.132812 177.339844 57.132812 188.617188 C 57.132812 207.28125 61.609375 225.5 69.890625 241.828125 C 68.453125 242.289062 67 242.75 65.5625 243.207031 M 292.542969 221.234375 C 291.035156 221.019531 289.539062 220.8125 288.058594 220.605469 C 291.074219 209.976562 292.515625 199.234375 292.515625 188.628906 C 292.515625 164.628906 285.109375 141.34375 271.726562 121.894531 C 271.417969 121.441406 271.109375 121 270.792969 120.558594 C 272.203125 119.910156 273.585938 119.277344 274.945312 118.65625 C 275.105469 118.886719 275.265625 119.121094 275.429688 119.351562 C 289.3125 139.539062 297.003906 163.703125 297.003906 188.628906 C 297.003906 199.445312 295.5625 210.398438 292.542969 221.234375 " fill-opacity="1" fill-rule="nonzero"/><path fill="#3b343e" d="M 174.816406 298.519531 C 162.3125 298.519531 149.597656 296.367188 137.175781 291.84375 C 110.335938 282.054688 89.621094 262.914062 77.375 239.441406 C 78.703125 239.019531 80.027344 238.59375 81.347656 238.171875 C 93.175781 260.480469 112.984375 278.65625 138.582031 287.988281 C 150.550781 292.347656 162.785156 294.414062 174.816406 294.414062 C 218.011719 294.410156 258.574219 267.769531 274.230469 224.847656 C 274.945312 222.898438 275.59375 220.941406 276.183594 218.972656 C 277.546875 219.15625 278.917969 219.34375 280.304688 219.539062 C 279.640625 221.785156 278.90625 224.027344 278.089844 226.257812 L 276.160156 225.554688 L 278.089844 226.257812 C 261.820312 270.84375 219.691406 298.519531 174.816406 298.519531 M 74.105469 156.210938 C 72.734375 156.03125 71.347656 155.847656 69.972656 155.660156 C 70.464844 154.101562 70.996094 152.539062 71.5625 150.984375 C 87.828125 106.398438 129.957031 78.71875 174.828125 78.71875 C 187.332031 78.71875 200.050781 80.867188 212.476562 85.398438 C 233.765625 93.160156 251.207031 106.816406 263.617188 123.847656 C 262.355469 124.425781 261.09375 125.007812 259.808594 125.597656 C 247.894531 109.511719 231.289062 96.625 211.066406 89.253906 C 199.101562 84.894531 186.863281 82.824219 174.828125 82.824219 C 131.636719 82.828125 91.074219 109.464844 75.417969 152.390625 C 74.953125 153.660156 74.515625 154.9375 74.105469 156.210938 " fill-opacity="1" fill-rule="nonzero"/><path fill="#4b4451" d="M 77.375 239.441406 C 69.273438 223.90625 64.882812 206.476562 64.882812 188.609375 C 64.882812 177.675781 66.527344 166.582031 69.972656 155.660156 C 71.347656 155.847656 72.734375 156.03125 74.105469 156.210938 C 70.640625 166.949219 68.988281 177.859375 68.988281 188.609375 C 68.988281 206.046875 73.335938 223.058594 81.347656 238.171875 C 80.027344 238.59375 78.703125 239.019531 77.375 239.441406 M 280.304688 219.539062 C 278.917969 219.34375 277.546875 219.15625 276.183594 218.972656 C 279.214844 208.902344 280.660156 198.699219 280.660156 188.632812 C 280.660156 165.789062 273.199219 143.671875 259.808594 125.597656 C 261.09375 125.007812 262.355469 124.425781 263.617188 123.847656 C 277.207031 142.496094 284.769531 165.191406 284.769531 188.632812 C 284.769531 198.882812 283.320312 209.277344 280.304688 219.539062 " fill-opacity="1" fill-rule="nonzero"/><path fill="#3b343e" d="M 174.820312 292.574219 C 162.992188 292.574219 150.960938 290.542969 139.210938 286.261719 C 118.121094 278.574219 101.011719 264.761719 89.195312 247.578125 C 86.984375 244.367188 84.960938 241.035156 83.128906 237.601562 C 84.457031 237.179688 85.78125 236.753906 87.105469 236.328125 C 98.316406 256.953125 116.820312 273.734375 140.617188 282.402344 C 151.914062 286.523438 163.460938 288.46875 174.820312 288.472656 C 215.589844 288.46875 253.875 263.328125 268.644531 222.816406 C 269.207031 221.269531 269.730469 219.726562 270.214844 218.171875 C 271.574219 218.355469 272.953125 218.535156 274.34375 218.722656 C 273.785156 220.558594 273.171875 222.394531 272.503906 224.222656 L 270.574219 223.523438 L 272.503906 224.222656 C 257.121094 266.398438 217.269531 292.578125 174.820312 292.574219 M 80.101562 157.007812 C 78.726562 156.824219 77.34375 156.644531 75.960938 156.457031 C 76.332031 155.308594 76.726562 154.164062 77.144531 153.019531 C 92.535156 110.847656 132.382812 84.664062 174.832031 84.664062 C 186.660156 84.664062 198.6875 86.699219 210.4375 90.980469 C 230.175781 98.179688 246.410156 110.722656 258.101562 126.382812 C 256.835938 126.964844 255.5625 127.546875 254.28125 128.140625 C 243.097656 113.425781 227.691406 101.640625 209.035156 94.835938 C 197.738281 90.722656 186.1875 88.769531 174.832031 88.769531 C 134.0625 88.773438 95.78125 113.914062 81.003906 154.429688 C 80.6875 155.285156 80.386719 156.144531 80.101562 157.007812 " fill-opacity="1" fill-rule="nonzero"/><path fill="#4b4451" d="M 83.128906 237.601562 C 75.15625 222.683594 70.828125 205.863281 70.828125 188.609375 C 70.828125 177.9375 72.484375 167.105469 75.960938 156.457031 C 77.34375 156.644531 78.726562 156.824219 80.101562 157.007812 C 76.597656 167.46875 74.9375 178.121094 74.9375 188.609375 C 74.9375 205.433594 79.222656 221.828125 87.105469 236.328125 C 85.78125 236.753906 84.457031 237.179688 83.128906 237.601562 M 274.34375 218.722656 C 272.953125 218.535156 271.574219 218.355469 270.214844 218.171875 C 273.261719 208.371094 274.714844 198.429688 274.714844 188.628906 C 274.714844 166.640625 267.394531 145.378906 254.28125 128.140625 C 255.5625 127.546875 256.835938 126.964844 258.101562 126.382812 C 271.402344 144.199219 278.820312 166.046875 278.820312 188.628906 C 278.820312 198.613281 277.371094 208.742188 274.34375 218.722656 " fill-opacity="1" fill-rule="nonzero"/><path fill="#3b343e" d="M 174.816406 287.078125 C 163.613281 287.078125 152.222656 285.152344 141.09375 281.09375 C 121.121094 273.816406 104.921875 260.738281 93.726562 244.460938 C 91.824219 241.695312 90.0625 238.835938 88.453125 235.894531 C 89.785156 235.46875 91.117188 235.042969 92.441406 234.617188 C 103.085938 253.6875 120.367188 269.171875 142.5 277.238281 C 153.171875 281.125 164.085938 282.972656 174.816406 282.972656 C 213.335938 282.964844 249.519531 259.210938 263.472656 220.929688 C 263.898438 219.769531 264.296875 218.597656 264.671875 217.433594 C 266.042969 217.613281 267.414062 217.796875 268.808594 217.984375 C 268.355469 219.4375 267.863281 220.890625 267.332031 222.339844 L 265.40625 221.632812 L 267.332031 222.339844 C 260.050781 242.300781 246.964844 258.5 230.6875 269.6875 C 214.402344 280.875 194.921875 287.070312 174.816406 287.078125 M 85.667969 157.738281 C 84.285156 157.554688 82.90625 157.375 81.511719 157.195312 C 81.769531 156.425781 82.039062 155.664062 82.316406 154.902344 C 96.886719 114.960938 134.628906 90.164062 174.828125 90.167969 C 186.027344 90.167969 197.425781 92.09375 208.554688 96.148438 C 226.847656 102.820312 241.964844 114.34375 252.980469 128.734375 C 251.710938 129.320312 250.433594 129.902344 249.152344 130.492188 C 238.648438 117.046875 224.367188 106.28125 207.148438 100.003906 C 196.472656 96.113281 185.558594 94.273438 174.828125 94.273438 C 136.308594 94.273438 100.132812 118.03125 86.171875 156.308594 C 86 156.789062 85.832031 157.261719 85.667969 157.738281 " fill-opacity="1" fill-rule="nonzero"/><path fill="#4b4451" d="M 88.453125 235.894531 C 80.601562 221.546875 76.332031 205.292969 76.332031 188.609375 C 76.332031 178.179688 78.003906 167.585938 81.511719 157.195312 C 82.90625 157.375 84.285156 157.554688 85.667969 157.738281 C 82.117188 167.949219 80.4375 178.363281 80.4375 188.609375 C 80.4375 204.863281 84.667969 220.695312 92.441406 234.617188 C 91.117188 235.042969 89.785156 235.46875 88.453125 235.894531 M 268.808594 217.984375 C 267.414062 217.796875 266.042969 217.613281 264.671875 217.433594 C 267.746094 207.882812 269.207031 198.183594 269.207031 188.628906 C 269.207031 167.4375 262.007812 146.953125 249.152344 130.492188 C 250.433594 129.902344 251.710938 129.320312 252.980469 128.734375 C 266.027344 145.777344 273.316406 166.839844 273.316406 188.628906 C 273.316406 198.367188 271.859375 208.253906 268.808594 217.984375 " fill-opacity="1" fill-rule="nonzero"/><path fill="#3b343e" d="M 174.816406 276.480469 C 164.824219 276.480469 154.65625 274.765625 144.726562 271.144531 C 124.554688 263.792969 108.710938 249.824219 98.75 232.589844 C 99.824219 232.246094 100.890625 231.902344 101.957031 231.5625 C 111.558594 247.871094 126.671875 261.074219 145.847656 268.058594 C 155.417969 271.546875 165.199219 273.195312 174.816406 273.203125 C 209.351562 273.195312 241.78125 251.902344 254.292969 217.585938 C 254.46875 217.105469 254.640625 216.625 254.804688 216.140625 C 255.902344 216.285156 257.007812 216.429688 258.125 216.574219 C 257.886719 217.285156 257.636719 218 257.378906 218.710938 C 244.375 254.355469 210.691406 276.484375 174.816406 276.480469 M 95.585938 159.035156 C 94.480469 158.890625 93.367188 158.75 92.25 158.601562 C 92.253906 158.578125 92.261719 158.554688 92.269531 158.535156 C 105.277344 122.886719 138.953125 100.753906 174.828125 100.761719 C 184.828125 100.761719 194.996094 102.476562 204.933594 106.097656 C 220.449219 111.753906 233.402344 121.328125 243.085938 133.285156 C 242.0625 133.757812 241.03125 134.234375 240.007812 134.707031 C 230.742188 123.492188 218.464844 114.523438 203.804688 109.179688 C 194.234375 105.691406 184.449219 104.042969 174.828125 104.042969 C 140.507812 104.042969 108.261719 125.082031 95.585938 159.035156 " fill-opacity="1" fill-rule="nonzero"/><path fill="#4b4451" d="M 98.75 232.589844 C 91.105469 219.355469 86.929688 204.191406 86.929688 188.617188 C 86.929688 178.644531 88.640625 168.503906 92.25 158.601562 C 93.367188 158.75 94.480469 158.890625 95.585938 159.035156 C 95.507812 159.246094 95.429688 159.449219 95.355469 159.65625 C 91.863281 169.21875 90.214844 178.996094 90.210938 188.617188 C 90.214844 203.851562 94.367188 218.679688 101.957031 231.5625 C 100.890625 231.902344 99.824219 232.246094 98.75 232.589844 M 258.125 216.574219 C 257.007812 216.429688 255.902344 216.285156 254.804688 216.140625 C 257.945312 207.039062 259.433594 197.761719 259.433594 188.625 C 259.433594 168.84375 252.4375 149.75 240.007812 134.707031 C 241.03125 134.234375 242.0625 133.757812 243.085938 133.285156 C 255.65625 148.8125 262.71875 168.367188 262.71875 188.625 C 262.71875 197.902344 261.234375 207.328125 258.125 216.574219 " fill-opacity="1" fill-rule="nonzero"/><path fill="#3b343e" d="M 174.820312 271.726562 C 165.363281 271.726562 155.742188 270.101562 146.347656 266.679688 C 127.621094 259.851562 112.832031 246.992188 103.390625 231.101562 C 104.460938 230.753906 105.535156 230.410156 106.597656 230.066406 C 115.683594 245.039062 129.738281 257.132812 147.476562 263.597656 C 156.507812 266.886719 165.738281 268.445312 174.820312 268.445312 C 207.410156 268.445312 238.023438 248.347656 249.832031 215.960938 C 249.882812 215.8125 249.9375 215.667969 249.988281 215.527344 C 251.085938 215.664062 252.199219 215.808594 253.320312 215.949219 C 253.1875 216.328125 253.050781 216.707031 252.914062 217.082031 C 240.617188 250.796875 208.757812 271.730469 174.820312 271.726562 M 100.425781 159.664062 C 99.320312 159.519531 98.203125 159.378906 97.078125 159.230469 C 109.625 126.058594 141.207031 105.507812 174.828125 105.507812 C 184.285156 105.507812 193.902344 107.136719 203.300781 110.5625 C 217.570312 115.761719 229.550781 124.464844 238.628906 135.339844 C 237.59375 135.8125 236.5625 136.292969 235.535156 136.765625 C 226.886719 126.632812 215.582031 118.53125 202.175781 113.644531 C 193.144531 110.351562 183.910156 108.792969 174.828125 108.792969 C 142.78125 108.792969 112.660156 128.230469 100.425781 159.664062 " fill-opacity="1" fill-rule="nonzero"/><path fill="#4b4451" d="M 103.390625 231.101562 C 95.824219 218.375 91.679688 203.703125 91.679688 188.617188 C 91.679688 179.164062 93.308594 169.550781 96.734375 160.160156 C 96.847656 159.847656 96.964844 159.539062 97.078125 159.230469 C 98.203125 159.378906 99.320312 159.519531 100.425781 159.664062 C 100.21875 160.203125 100.015625 160.742188 99.820312 161.285156 C 96.527344 170.308594 94.964844 179.539062 94.964844 188.617188 C 94.964844 203.355469 99.085938 217.695312 106.597656 230.066406 C 105.535156 230.410156 104.460938 230.753906 103.390625 231.101562 M 253.320312 215.949219 C 252.199219 215.808594 251.085938 215.664062 249.988281 215.527344 C 253.171875 206.636719 254.683594 197.554688 254.683594 188.625 C 254.683594 169.527344 247.773438 151.113281 235.535156 136.765625 C 236.5625 136.292969 237.59375 135.8125 238.628906 135.339844 C 250.996094 150.175781 257.96875 169.054688 257.96875 188.625 C 257.96875 197.699219 256.46875 206.921875 253.320312 215.949219 " fill-opacity="1" fill-rule="nonzero"/><path fill="#3b343e" d="M 174.820312 267.332031 C 165.863281 267.332031 156.753906 265.789062 147.859375 262.546875 C 130.460938 256.203125 116.652344 244.371094 107.6875 229.71875 C 108.765625 229.371094 109.84375 229.019531 110.90625 228.683594 C 119.507812 242.410156 132.582031 253.488281 148.980469 259.464844 C 157.515625 262.574219 166.238281 264.046875 174.820312 264.046875 C 205.449219 264.046875 234.222656 245.265625 245.511719 214.953125 C 246.308594 215.058594 247.113281 215.160156 247.921875 215.261719 L 248.785156 215.574219 C 237.132812 247.507812 206.960938 267.332031 174.820312 267.332031 M 248.785156 215.574219 L 247.921875 215.261719 C 248.230469 215.300781 248.542969 215.339844 248.855469 215.378906 C 248.828125 215.445312 248.808594 215.507812 248.785156 215.574219 M 104.925781 160.25 C 103.820312 160.105469 102.691406 159.957031 101.566406 159.816406 C 113.695312 128.96875 143.316406 109.910156 174.828125 109.910156 C 183.785156 109.910156 192.890625 111.449219 201.792969 114.691406 C 214.90625 119.472656 225.980469 127.375 234.476562 137.253906 C 233.433594 137.730469 232.40625 138.207031 231.371094 138.6875 C 223.3125 129.550781 212.917969 122.242188 200.667969 117.777344 C 192.132812 114.667969 183.410156 113.191406 174.828125 113.191406 C 144.890625 113.191406 116.730469 131.140625 104.925781 160.25 " fill-opacity="1" fill-rule="nonzero"/><path fill="#4b4451" d="M 107.6875 229.71875 C 100.195312 217.464844 96.082031 203.242188 96.082031 188.609375 C 96.082031 179.660156 97.621094 170.554688 100.863281 161.664062 C 101.09375 161.042969 101.324219 160.429688 101.566406 159.816406 C 102.691406 159.957031 103.820312 160.105469 104.925781 160.25 C 104.585938 161.089844 104.261719 161.933594 103.949219 162.792969 C 100.839844 171.320312 99.367188 180.035156 99.363281 188.609375 C 99.367188 202.902344 103.460938 216.785156 110.90625 228.683594 C 109.84375 229.019531 108.765625 229.371094 107.6875 229.71875 M 248.855469 215.378906 C 248.542969 215.339844 248.230469 215.300781 247.921875 215.261719 L 247.242188 215.011719 L 247.921875 215.261719 C 247.113281 215.160156 246.308594 215.058594 245.511719 214.953125 C 245.574219 214.789062 245.640625 214.617188 245.703125 214.449219 C 248.808594 205.921875 250.28125 197.203125 250.28125 188.628906 C 250.28125 170.167969 243.445312 152.375 231.371094 138.6875 C 232.40625 138.207031 233.433594 137.730469 234.476562 137.253906 C 246.675781 151.4375 253.566406 169.691406 253.566406 188.628906 C 253.566406 197.515625 252.046875 206.550781 248.855469 215.378906 " fill-opacity="1" fill-rule="nonzero"/><path fill="#141012" d="M 240.5 212.558594 C 227.273438 248.816406 187.148438 267.488281 150.878906 254.265625 C 114.605469 241.050781 95.929688 200.941406 109.15625 164.683594 C 122.378906 128.429688 162.5 109.753906 198.769531 122.976562 C 235.042969 136.195312 253.71875 176.300781 240.5 212.558594 " fill-opacity="1" fill-rule="nonzero"/><path fill="#f14624" d="M 224.289062 206.648438 C 214.335938 233.960938 184.109375 248.023438 156.792969 238.070312 C 129.464844 228.113281 115.398438 197.902344 125.359375 170.589844 C 135.316406 143.28125 165.542969 129.214844 192.867188 139.167969 C 220.183594 149.128906 234.253906 179.34375 224.289062 206.648438 " fill-opacity="1" fill-rule="nonzero"/><path fill="#d53620" d="M 130.59375 165.191406 C 132.292969 169.191406 135.003906 172.5625 138.332031 175.371094 C 144.679688 180.71875 152.003906 184.460938 159.542969 187.824219 C 174.640625 194.550781 191.214844 199.046875 207.859375 198.417969 C 214.546875 198.167969 220.917969 197.097656 227.0625 195.195312 C 230.085938 171.355469 216.398438 147.75 192.867188 139.167969 C 168.558594 130.308594 141.964844 140.476562 129.378906 162.058594 C 129.761719 163.105469 130.148438 164.148438 130.59375 165.191406 " fill-opacity="1" fill-rule="nonzero"/><path fill="#141012" d="M 190.5 194.332031 C 187.347656 202.996094 177.765625 207.453125 169.105469 204.296875 C 160.449219 201.136719 155.988281 191.558594 159.140625 182.90625 C 162.304688 174.25 171.882812 169.796875 180.539062 172.949219 C 189.207031 176.101562 193.660156 185.675781 190.5 194.332031 " fill-opacity="1" fill-rule="nonzero"/><path fill="#0a0606" d="M 182.789062 191.523438 C 181.183594 195.925781 176.316406 198.183594 171.925781 196.582031 C 167.523438 194.976562 165.257812 190.117188 166.859375 185.722656 C 168.464844 181.324219 173.332031 179.058594 177.726562 180.660156 C 182.128906 182.261719 184.394531 187.128906 182.789062 191.523438 " fill-opacity="1" fill-rule="nonzero"/><path fill="#9a9898" d="M 326.882812 70.839844 L 326.882812 154.75 C 326.882812 156.820312 326.476562 159.039062 325.695312 161.253906 C 324.53125 164.574219 322.511719 167.855469 320.011719 170.511719 C 317.511719 173.171875 314.542969 175.1875 311.617188 176.191406 L 282.832031 186.167969 L 286.082031 195.539062 L 314.867188 185.566406 C 318.027344 184.464844 320.945312 182.78125 323.554688 180.703125 C 327.46875 177.582031 330.71875 173.589844 333.050781 169.140625 C 335.375 164.695312 336.800781 159.777344 336.804688 154.75 L 336.804688 70.839844 L 326.882812 70.839844 " fill-opacity="1" fill-rule="nonzero"/><path fill="#d3d2d2" d="M 286.453125 189.796875 C 287.828125 193.859375 286.613281 197.9375 281.425781 199.699219 L 265.765625 205.003906 C 260.578125 206.765625 258.066406 203.941406 256.691406 199.878906 C 255.3125 195.8125 255.585938 192.046875 260.773438 190.289062 L 276.433594 184.984375 C 281.625 183.226562 285.066406 185.734375 286.453125 189.796875 " fill-opacity="1" fill-rule="nonzero"/><path fill="#b0aeaf" d="M 284.257812 190.535156 C 284.636719 191.65625 284.441406 192.746094 283.820312 192.957031 L 271.511719 197.128906 C 270.882812 197.335938 270.070312 196.59375 269.691406 195.472656 C 269.308594 194.347656 269.507812 193.269531 270.128906 193.054688 L 282.441406 188.882812 C 283.0625 188.675781 283.875 189.410156 284.257812 190.535156 " fill-opacity="1" fill-rule="nonzero"/><path fill="#b0aeaf" d="M 294.207031 196.460938 L 284.339844 199.800781 L 278.6875 183.125 L 288.554688 179.785156 L 294.207031 196.460938 " fill-opacity="1" fill-rule="nonzero"/><path fill="#918f8f" d="M 348.875 66.105469 C 348.875 70.910156 345.746094 74.804688 341.878906 74.804688 L 324.113281 74.804688 C 320.25 74.804688 317.128906 70.910156 317.128906 66.105469 L 317.128906 42.347656 C 317.128906 37.535156 320.25 33.644531 324.113281 33.644531 L 341.878906 33.644531 C 345.746094 33.644531 348.875 37.535156 348.875 42.347656 L 348.875 66.105469 " fill-opacity="1" fill-rule="nonzero"/><path fill="#a9a8a8" d="M 345.15625 61.800781 C 345.15625 65.96875 342.757812 69.351562 339.796875 69.351562 L 326.195312 69.351562 C 323.242188 69.351562 320.84375 65.96875 320.84375 61.800781 L 320.84375 41.195312 C 320.84375 37.027344 323.242188 33.644531 326.195312 33.644531 L 339.796875 33.644531 C 342.757812 33.644531 345.15625 37.027344 345.15625 41.195312 L 345.15625 61.800781 " fill-opacity="1" fill-rule="nonzero"/><path fill="#918f8f" d="M 339.273438 45.222656 C 339.273438 48.6875 336.464844 51.496094 333 51.496094 C 329.527344 51.496094 326.71875 48.6875 326.71875 45.222656 C 326.71875 41.757812 329.527344 38.945312 333 38.945312 C 336.464844 38.945312 339.273438 41.757812 339.273438 45.222656 " fill-opacity="1" fill-rule="nonzero"/></svg>