<svg xmlns="http://www.w3.org/2000/svg" viewBox="0 0 157.5 268.54"><defs><style>.cls-1{fill:#b4b3b3;}.cls-2{fill:#d3d2d2;}.cls-3{fill:#e0e0e0;}.cls-4{fill:#9a9898;}.cls-5{fill:#b0aeaf;}.cls-6{fill:#918f8f;}.cls-7{fill:#a9a8a8;}</style></defs><g id="图层_2" data-name="图层 2"><g id="图层_1-2" data-name="图层 1"><path class="cls-1" d="M142.3,16.93A54.79,54.79,0,1,1,64.82,15.2a54.76,54.76,0,0,1,77.48,1.73"/><path class="cls-2" d="M137.52,21.49A48.18,48.18,0,1,1,69.38,20a48.17,48.17,0,0,1,68.14,1.53"/><path class="cls-3" d="M126.92,31.62a33.52,33.52,0,1,1-47.4-1.06,33.5,33.5,0,0,1,47.4,1.06"/><path class="cls-4" d="M94.53,88.94V200.82A26.33,26.33,0,0,1,93,209.49a35.61,35.61,0,0,1-7.58,12.35,28.76,28.76,0,0,1-11.19,7.57L35.8,242.71l4.33,12.5,38.38-13.3a39.57,39.57,0,0,0,11.59-6.48A48.81,48.81,0,0,0,102.76,220a41.64,41.64,0,0,0,5-19.19V88.94H94.53"/><path class="cls-2" d="M40.63,247.55c1.83,5.42.21,10.85-6.71,13.2L13,267.83C6.13,270.18,2.78,266.41,1,261s-1.48-10.44,5.44-12.78l20.88-7.08c6.92-2.34,11.51,1,13.36,6.42"/><path class="cls-5" d="M37.7,248.53c.51,1.5.25,2.95-.58,3.23l-16.41,5.57c-.84.27-1.93-.72-2.43-2.21s-.25-2.94.58-3.23l16.42-5.56c.83-.27,1.91.7,2.42,2.2"/><path class="cls-5" d="M51,256.44l-13.16,4.45-7.54-22.24,13.16-4.45L51,256.44"/><path class="cls-6" d="M123.86,82.63c0,6.4-4.17,11.6-9.33,11.6H90.84c-5.15,0-9.31-5.2-9.31-11.6V51c0-6.42,4.16-11.6,9.31-11.6h23.69c5.16,0,9.33,5.18,9.33,11.6V82.63"/><path class="cls-7" d="M118.9,76.89c0,5.56-3.2,10.07-7.15,10.07H93.62c-3.94,0-7.14-4.51-7.14-10.07V49.41c0-5.55,3.2-10.06,7.14-10.06h18.13c4,0,7.15,4.51,7.15,10.06V76.89"/><path class="cls-6" d="M111.06,54.78a8.37,8.37,0,1,1-8.37-8.37,8.37,8.37,0,0,1,8.37,8.37"/></g></g></svg>