<svg xmlns="http://www.w3.org/2000/svg" xmlns:xlink="http://www.w3.org/1999/xlink" width="300" zoomAndPan="magnify" viewBox="0 0 224.87999 225" height="300" preserveAspectRatio="xMidYMid meet" version="1.0"><defs><clipPath id="4e34525d96"><path d="M 61 0.0585938 L 164 0.0585938 L 164 224.9375 L 61 224.9375 Z M 61 0.0585938 " clip-rule="nonzero"/></clipPath><clipPath id="eeead82fda"><path d="M 198 64 L 208.253906 64 L 208.253906 140 L 198 140 Z M 198 64 " clip-rule="nonzero"/></clipPath><clipPath id="beb1361202"><path d="M 16.355469 64 L 27 64 L 27 140 L 16.355469 140 Z M 16.355469 64 " clip-rule="nonzero"/></clipPath></defs><g clip-path="url(#4e34525d96)"><path fill="#000000" d="M 163.855469 143.605469 L 163.855469 51.160156 C 163.855469 49.484375 163.769531 47.808594 163.605469 46.140625 C 163.441406 44.472656 163.195312 42.816406 162.867188 41.171875 C 162.539062 39.523438 162.128906 37.902344 161.640625 36.296875 C 161.152344 34.691406 160.589844 33.113281 159.945312 31.5625 C 159.300781 30.015625 158.585938 28.5 157.792969 27.023438 C 157 25.542969 156.136719 24.105469 155.203125 22.710938 C 154.269531 21.316406 153.269531 19.972656 152.207031 18.675781 C 151.140625 17.378906 150.011719 16.140625 148.824219 14.953125 C 147.636719 13.765625 146.394531 12.644531 145.097656 11.578125 C 143.796875 10.515625 142.449219 9.515625 141.054688 8.585938 C 139.65625 7.652344 138.21875 6.792969 136.738281 6.003906 C 135.257812 5.210938 133.738281 4.496094 132.1875 3.855469 C 130.636719 3.210938 129.058594 2.648438 127.449219 2.160156 C 125.84375 1.675781 124.214844 1.269531 122.570312 0.941406 C 120.921875 0.613281 119.261719 0.367188 117.589844 0.203125 C 115.917969 0.0390625 114.246094 -0.0429688 112.566406 -0.0429688 C 110.886719 -0.0429688 109.210938 0.0390625 107.539062 0.203125 C 105.867188 0.367188 104.207031 0.613281 102.5625 0.941406 C 100.914062 1.269531 99.285156 1.675781 97.679688 2.160156 C 96.074219 2.648438 94.492188 3.210938 92.941406 3.855469 C 91.390625 4.496094 89.875 5.210938 88.390625 6.003906 C 86.910156 6.792969 85.472656 7.652344 84.074219 8.585938 C 82.679688 9.515625 81.332031 10.515625 80.035156 11.578125 C 78.734375 12.644531 77.492188 13.765625 76.304688 14.953125 C 75.117188 16.140625 73.988281 17.378906 72.925781 18.675781 C 71.859375 19.972656 70.859375 21.316406 69.925781 22.710938 C 68.992188 24.105469 68.128906 25.542969 67.335938 27.023438 C 66.546875 28.5 65.828125 30.015625 65.183594 31.5625 C 64.542969 33.113281 63.976562 34.691406 63.488281 36.296875 C 63 37.902344 62.59375 39.523438 62.265625 41.171875 C 61.9375 42.816406 61.691406 44.472656 61.523438 46.140625 C 61.359375 47.808594 61.277344 49.484375 61.277344 51.160156 L 61.277344 143.605469 C 61.277344 145.179688 61.351562 146.75 61.5 148.3125 C 61.644531 149.878906 61.863281 151.4375 62.152344 152.980469 C 62.441406 154.527344 62.800781 156.054688 63.234375 157.570312 C 63.664062 159.082031 64.164062 160.570312 64.730469 162.039062 C 65.296875 163.503906 65.933594 164.941406 66.632812 166.351562 C 67.332031 167.757812 68.097656 169.132812 68.921875 170.46875 C 69.75 171.808594 70.636719 173.105469 71.582031 174.363281 C 72.527344 175.621094 73.53125 176.832031 74.589844 177.996094 C 75.644531 179.160156 76.753906 180.273438 77.914062 181.335938 C 79.074219 182.398438 80.28125 183.40625 81.535156 184.359375 C 82.789062 185.3125 84.082031 186.203125 85.417969 187.039062 C 86.753906 187.871094 88.125 188.640625 89.53125 189.347656 C 90.9375 190.054688 92.371094 190.695312 93.839844 191.273438 C 95.304688 191.847656 96.792969 192.355469 98.304688 192.792969 C 99.816406 193.230469 101.34375 193.601562 102.890625 193.898438 C 104.4375 194.195312 105.996094 194.421875 107.5625 194.578125 L 107.5625 214.816406 L 86.292969 214.816406 L 86.292969 224.808594 L 138.835938 224.808594 L 138.835938 214.816406 L 117.570312 214.816406 L 117.570312 194.578125 C 119.136719 194.421875 120.691406 194.195312 122.238281 193.898438 C 123.785156 193.601562 125.3125 193.230469 126.824219 192.792969 C 128.335938 192.355469 129.824219 191.847656 131.292969 191.273438 C 132.757812 190.695312 134.191406 190.054688 135.597656 189.347656 C 137.003906 188.640625 138.375 187.871094 139.710938 187.039062 C 141.046875 186.203125 142.339844 185.3125 143.59375 184.359375 C 144.847656 183.40625 146.054688 182.398438 147.214844 181.335938 C 148.375 180.273438 149.484375 179.160156 150.542969 177.996094 C 151.597656 176.832031 152.601562 175.621094 153.546875 174.363281 C 154.492188 173.105469 155.378906 171.808594 156.207031 170.46875 C 157.035156 169.132812 157.796875 167.757812 158.496094 166.351562 C 159.199219 164.941406 159.832031 163.503906 160.398438 162.039062 C 160.96875 160.570312 161.464844 159.082031 161.898438 157.570312 C 162.328125 156.054688 162.6875 154.527344 162.976562 152.980469 C 163.265625 151.4375 163.484375 149.878906 163.632812 148.3125 C 163.777344 146.75 163.851562 145.179688 163.855469 143.605469 Z M 112.566406 9.933594 C 113.917969 9.933594 115.265625 10 116.609375 10.132812 C 117.957031 10.265625 119.292969 10.460938 120.617188 10.726562 C 121.945312 10.988281 123.253906 11.316406 124.546875 11.710938 C 125.84375 12.101562 127.113281 12.554688 128.363281 13.070312 C 129.613281 13.589844 130.832031 14.164062 132.023438 14.800781 C 133.21875 15.4375 134.375 16.132812 135.5 16.882812 C 136.625 17.632812 137.707031 18.433594 138.753906 19.292969 C 139.796875 20.148438 140.800781 21.054688 141.753906 22.007812 C 142.710938 22.964844 143.617188 23.960938 144.476562 25.007812 C 145.332031 26.050781 146.136719 27.132812 146.890625 28.257812 C 147.640625 29.378906 148.335938 30.535156 148.972656 31.726562 C 149.609375 32.917969 150.1875 34.136719 150.703125 35.382812 C 151.222656 36.632812 151.675781 37.902344 152.070312 39.191406 C 152.460938 40.484375 152.789062 41.792969 153.054688 43.117188 C 153.316406 44.441406 153.515625 45.777344 153.648438 47.121094 C 153.78125 48.464844 153.847656 49.808594 153.847656 51.160156 L 153.847656 62.402344 L 137.585938 62.402344 L 137.585938 72.398438 L 153.847656 72.398438 L 153.847656 91.136719 L 137.585938 91.136719 L 137.585938 101.132812 L 153.847656 101.132812 L 153.847656 121.121094 L 71.285156 121.121094 L 71.285156 101.132812 L 87.546875 101.132812 L 87.546875 91.136719 L 71.285156 91.136719 L 71.285156 72.398438 L 87.546875 72.398438 L 87.546875 62.402344 L 71.285156 62.402344 L 71.285156 51.160156 C 71.285156 49.808594 71.351562 48.464844 71.480469 47.121094 C 71.613281 45.777344 71.8125 44.441406 72.078125 43.117188 C 72.339844 41.792969 72.667969 40.484375 73.0625 39.191406 C 73.453125 37.902344 73.910156 36.632812 74.425781 35.382812 C 74.941406 34.136719 75.519531 32.917969 76.15625 31.726562 C 76.796875 30.535156 77.488281 29.378906 78.242188 28.257812 C 78.992188 27.132812 79.796875 26.050781 80.652344 25.007812 C 81.511719 23.960938 82.417969 22.964844 83.375 22.007812 C 84.332031 21.054688 85.332031 20.148438 86.375 19.292969 C 87.421875 18.433594 88.507812 17.632812 89.628906 16.882812 C 90.753906 16.132812 91.914062 15.4375 93.105469 14.800781 C 94.296875 14.164062 95.519531 13.589844 96.765625 13.070312 C 98.015625 12.554688 99.289062 12.101562 100.582031 11.710938 C 101.875 11.316406 103.183594 10.988281 104.511719 10.726562 C 105.835938 10.460938 107.171875 10.265625 108.519531 10.132812 C 109.863281 10 111.214844 9.933594 112.566406 9.933594 Z M 71.285156 143.605469 L 71.285156 131.113281 L 153.847656 131.113281 L 153.847656 143.605469 C 153.847656 144.957031 153.78125 146.304688 153.648438 147.648438 C 153.515625 148.992188 153.316406 150.324219 153.054688 151.648438 C 152.789062 152.972656 152.460938 154.28125 152.070312 155.574219 C 151.675781 156.867188 151.222656 158.136719 150.703125 159.382812 C 150.1875 160.632812 149.609375 161.851562 148.972656 163.042969 C 148.335938 164.230469 147.640625 165.386719 146.890625 166.511719 C 146.136719 167.632812 145.332031 168.71875 144.476562 169.761719 C 143.617188 170.804688 142.710938 171.804688 141.753906 172.757812 C 140.800781 173.714844 139.796875 174.617188 138.753906 175.476562 C 137.707031 176.332031 136.625 177.136719 135.5 177.886719 C 134.375 178.636719 133.21875 179.328125 132.023438 179.964844 C 130.832031 180.601562 129.613281 181.179688 128.363281 181.695312 C 127.113281 182.210938 125.84375 182.667969 124.546875 183.058594 C 123.253906 183.449219 121.945312 183.777344 120.617188 184.042969 C 119.292969 184.304688 117.957031 184.503906 116.609375 184.636719 C 115.265625 184.765625 113.917969 184.832031 112.566406 184.832031 C 111.214844 184.832031 109.863281 184.765625 108.519531 184.636719 C 107.171875 184.503906 105.835938 184.304688 104.511719 184.042969 C 103.183594 183.777344 101.875 183.449219 100.582031 183.058594 C 99.289062 182.667969 98.015625 182.210938 96.765625 181.695312 C 95.519531 181.179688 94.296875 180.601562 93.105469 179.964844 C 91.914062 179.328125 90.753906 178.636719 89.628906 177.886719 C 88.507812 177.136719 87.421875 176.332031 86.375 175.476562 C 85.332031 174.617188 84.332031 173.714844 83.375 172.757812 C 82.417969 171.804688 81.511719 170.804688 80.652344 169.761719 C 79.796875 168.71875 78.992188 167.632812 78.242188 166.511719 C 77.488281 165.386719 76.796875 164.230469 76.15625 163.042969 C 75.519531 161.851562 74.941406 160.632812 74.425781 159.382812 C 73.910156 158.136719 73.453125 156.867188 73.0625 155.574219 C 72.667969 154.28125 72.339844 152.972656 72.078125 151.648438 C 71.8125 150.324219 71.613281 148.992188 71.480469 147.648438 C 71.351562 146.304688 71.285156 144.957031 71.285156 143.605469 Z M 71.285156 143.605469 " fill-opacity="1" fill-rule="nonzero"/></g><path fill="#000000" d="M 176.363281 69.898438 L 186.371094 69.898438 L 186.371094 114.875 L 176.363281 114.875 Z M 176.363281 69.898438 " fill-opacity="1" fill-rule="nonzero"/><g clip-path="url(#eeead82fda)"><path fill="#000000" d="M 198.882812 64.902344 L 208.886719 64.902344 L 208.886719 139.859375 L 198.882812 139.859375 Z M 198.882812 64.902344 " fill-opacity="1" fill-rule="nonzero"/></g><path fill="#000000" d="M 38.757812 89.886719 L 48.765625 89.886719 L 48.765625 134.863281 L 38.757812 134.863281 Z M 38.757812 89.886719 " fill-opacity="1" fill-rule="nonzero"/><g clip-path="url(#beb1361202)"><path fill="#000000" d="M 16.242188 64.902344 L 26.25 64.902344 L 26.25 139.859375 L 16.242188 139.859375 Z M 16.242188 64.902344 " fill-opacity="1" fill-rule="nonzero"/></g><path fill="#000000" d="M 127.578125 156.101562 C 127.578125 155.117188 127.480469 154.140625 127.289062 153.175781 C 127.09375 152.210938 126.8125 151.273438 126.433594 150.363281 C 126.054688 149.453125 125.59375 148.589844 125.046875 147.769531 C 124.5 146.953125 123.875 146.195312 123.179688 145.5 C 122.484375 144.804688 121.722656 144.183594 120.90625 143.636719 C 120.085938 143.089844 119.21875 142.625 118.308594 142.25 C 117.398438 141.871094 116.460938 141.589844 115.492188 141.398438 C 114.527344 141.203125 113.550781 141.109375 112.566406 141.109375 C 111.578125 141.109375 110.601562 141.203125 109.636719 141.398438 C 108.667969 141.589844 107.730469 141.871094 106.820312 142.25 C 105.910156 142.625 105.042969 143.089844 104.226562 143.636719 C 103.40625 144.183594 102.648438 144.804688 101.949219 145.5 C 101.253906 146.195312 100.632812 146.953125 100.082031 147.769531 C 99.535156 148.589844 99.074219 149.453125 98.695312 150.363281 C 98.320312 151.273438 98.035156 152.210938 97.84375 153.175781 C 97.648438 154.140625 97.554688 155.117188 97.554688 156.101562 C 97.554688 157.085938 97.648438 158.058594 97.84375 159.023438 C 98.035156 159.988281 98.320312 160.925781 98.695312 161.835938 C 99.074219 162.746094 99.535156 163.609375 100.082031 164.429688 C 100.632812 165.246094 101.253906 166.003906 101.949219 166.699219 C 102.648438 167.398438 103.40625 168.019531 104.226562 168.566406 C 105.042969 169.113281 105.910156 169.574219 106.820312 169.949219 C 107.730469 170.328125 108.667969 170.609375 109.636719 170.804688 C 110.601562 170.996094 111.578125 171.089844 112.566406 171.089844 C 113.550781 171.089844 114.527344 170.996094 115.492188 170.804688 C 116.460938 170.609375 117.398438 170.328125 118.308594 169.949219 C 119.21875 169.574219 120.085938 169.113281 120.90625 168.566406 C 121.722656 168.019531 122.484375 167.398438 123.179688 166.699219 C 123.875 166.003906 124.5 165.246094 125.046875 164.429688 C 125.59375 163.609375 126.054688 162.746094 126.433594 161.835938 C 126.8125 160.925781 127.09375 159.988281 127.289062 159.023438 C 127.480469 158.058594 127.578125 157.085938 127.578125 156.101562 Z M 107.5625 156.101562 C 107.5625 155.773438 107.59375 155.445312 107.65625 155.125 C 107.722656 154.804688 107.816406 154.492188 107.941406 154.1875 C 108.066406 153.882812 108.222656 153.597656 108.40625 153.324219 C 108.585938 153.050781 108.792969 152.796875 109.027344 152.566406 C 109.257812 152.335938 109.511719 152.128906 109.785156 151.945312 C 110.058594 151.761719 110.347656 151.609375 110.648438 151.484375 C 110.953125 151.359375 111.265625 151.261719 111.589844 151.199219 C 111.910156 151.136719 112.238281 151.101562 112.566406 151.101562 C 112.894531 151.101562 113.21875 151.136719 113.542969 151.199219 C 113.863281 151.261719 114.175781 151.359375 114.480469 151.484375 C 114.785156 151.609375 115.070312 151.761719 115.34375 151.945312 C 115.617188 152.128906 115.871094 152.335938 116.101562 152.566406 C 116.335938 152.796875 116.542969 153.050781 116.726562 153.324219 C 116.90625 153.597656 117.0625 153.882812 117.1875 154.1875 C 117.3125 154.492188 117.410156 154.804688 117.472656 155.125 C 117.535156 155.445312 117.570312 155.773438 117.570312 156.101562 C 117.570312 156.429688 117.535156 156.753906 117.472656 157.074219 C 117.410156 157.398438 117.3125 157.710938 117.1875 158.011719 C 117.0625 158.316406 116.90625 158.601562 116.726562 158.875 C 116.542969 159.148438 116.335938 159.402344 116.101562 159.632812 C 115.871094 159.867188 115.617188 160.074219 115.34375 160.253906 C 115.070312 160.4375 114.785156 160.589844 114.480469 160.714844 C 114.175781 160.84375 113.863281 160.9375 113.542969 161 C 113.21875 161.066406 112.894531 161.097656 112.566406 161.097656 C 112.238281 161.097656 111.910156 161.066406 111.589844 161 C 111.265625 160.9375 110.953125 160.84375 110.648438 160.714844 C 110.347656 160.589844 110.058594 160.4375 109.785156 160.253906 C 109.511719 160.074219 109.257812 159.867188 109.027344 159.632812 C 108.792969 159.402344 108.585938 159.148438 108.40625 158.875 C 108.222656 158.601562 108.066406 158.316406 107.941406 158.011719 C 107.816406 157.710938 107.722656 157.398438 107.65625 157.074219 C 107.59375 156.753906 107.5625 156.429688 107.5625 156.101562 Z M 107.5625 156.101562 " fill-opacity="1" fill-rule="nonzero"/></svg>